<svg width="16" height="16" viewBox="0 0 16 16" fill="none" xmlns="http://www.w3.org/2000/svg">
<path d="M9.54819 0.681511L6.43719 0.674011H6.43569C3.15519 0.674011 0.585693 3.24426 0.585693 6.52551C0.585693 9.59901 2.97519 11.93 6.18444 12.053V14.924C6.18444 15.005 6.21744 15.1385 6.27444 15.2263C6.38094 15.395 6.56244 15.4865 6.74844 15.4865C6.85194 15.4865 6.95619 15.458 7.04994 15.398C7.24794 15.272 11.9047 12.293 13.1159 11.2685C14.5424 10.061 15.3959 8.29101 15.3982 6.53451V6.52176C15.3937 3.24651 12.8257 0.681511 9.54819 0.680761V0.681511ZM12.3884 10.4105C11.5379 11.1305 8.74194 12.9643 7.30944 13.8928V11.5025C7.30944 11.192 7.05819 10.94 6.74694 10.94H6.44994C3.70494 10.94 1.71144 9.08301 1.71144 6.52551C1.71144 3.87501 3.78744 1.79901 6.43644 1.79901L9.54669 1.80651H9.54819C12.1972 1.80651 14.2732 3.88101 14.2747 6.52851C14.2724 7.96101 13.5682 9.41151 12.3892 10.4105H12.3884Z" fill="#5B7083"/>
</svg>
