<svg width="18" height="14" viewBox="0 0 18 14" fill="none" xmlns="http://www.w3.org/2000/svg">
<path d="M17.8413 9.7525C17.6223 9.53275 17.2661 9.53275 17.0463 9.7525L15.3813 11.4175V3.7375C15.3813 2.1865 14.1191 0.924997 12.5688 0.924997H8.18134C7.87084 0.924997 7.61884 1.177 7.61884 1.4875C7.61884 1.798 7.87084 2.05 8.18134 2.05H12.5688C13.4988 2.05 14.2563 2.8075 14.2563 3.7375V11.4175L12.5913 9.7525C12.3716 9.53275 12.0153 9.53275 11.7963 9.7525C11.5773 9.97225 11.5758 10.3285 11.7963 10.5475L14.4213 13.1725C14.5301 13.2827 14.6741 13.3375 14.8188 13.3375C14.9636 13.3375 15.1061 13.2835 15.2163 13.1725L17.8413 10.5475C18.0618 10.3285 18.0618 9.97225 17.8413 9.7525V9.7525ZM9.84633 12.2125H5.45884C4.52884 12.2125 3.77134 11.455 3.77134 10.525V2.845L5.43634 4.51C5.54734 4.62025 5.69134 4.675 5.83534 4.675C5.97934 4.675 6.12334 4.62025 6.23284 4.51C6.45259 4.29025 6.45259 3.934 6.23284 3.715L3.60784 1.09C3.38809 0.869497 3.03184 0.869497 2.81284 1.09L0.187836 3.715C-0.0326641 3.934 -0.0326641 4.29025 0.187836 4.51C0.408336 4.72975 0.763086 4.72975 0.982836 4.51L2.64784 2.845V10.525C2.64784 12.076 3.91009 13.3375 5.46034 13.3375H9.84784C10.1583 13.3375 10.4103 13.0855 10.4103 12.775C10.4103 12.4645 10.1576 12.2125 9.84784 12.2125H9.84633Z" fill="#5B7083"/>
</svg>
